<svg xmlns="http://www.w3.org/2000/svg" viewBox="0 0 64 64">
  <!-- The favicon: the F-bolt enlarged on a dark emerald tile, without the ring and spark (too fine at 16px). Keep in step with BrandMark in brand.tsx. -->
  <defs>
    <linearGradient id="f" x1="0.05" y1="0.75" x2="1" y2="0.05">
      <stop offset="0" stop-color="#f5c542"/>
      <stop offset="0.35" stop-color="#f6d39e"/>
      <stop offset="0.7" stop-color="#f5b6cf"/>
      <stop offset="1" stop-color="#e4c8f2"/>
    </linearGradient>
    <linearGradient id="a" x1="0" y1="0" x2="1" y2="0.6">
      <stop offset="0" stop-color="#bcc4f6"/>
      <stop offset="1" stop-color="#a5eadb"/>
    </linearGradient>
    <linearGradient id="t" x1="0" y1="0" x2="1" y2="1">
      <stop offset="0" stop-color="#0d3b2c"/>
      <stop offset="1" stop-color="#04150f"/>
    </linearGradient>
  </defs>
  <rect width="64" height="64" rx="14" fill="url(#t)"/>
  <rect x="0.75" y="0.75" width="62.5" height="62.5" rx="13.25" fill="none" stroke="#34d399" stroke-opacity="0.35" stroke-width="1.5"/>
  <g transform="translate(32 32.5) scale(1.12) translate(-35.5 -32.5)">
    <path d="M26 26C32 23 40 22.5 51 22.5C49 27 46 30.5 40 31C35 31.2 31 32 27 35Z" fill="url(#a)"/>
    <path d="M24 10C34 6.5 46 7 57 7L52.5 15.5C44 15.5 36 16 32.5 19L27.5 30H33L15 58L20.5 36H14Z" fill="url(#f)"/>
  </g>
</svg>
